<svg width="103" height="38" viewBox="0 0 103 38" fill="none" xmlns="http://www.w3.org/2000/svg">
<path d="M28.7268 16.9352C28.2477 17.4182 27.8808 18.0011 27.6522 18.6423C27.4236 19.2836 27.339 19.9675 27.4044 20.6453L27.3816 20.6225C27.4489 21.4203 27.3414 22.2231 27.0669 22.9752C26.7925 23.7271 26.3576 24.4099 25.7925 24.9761C25.2274 25.5422 24.5458 25.9781 23.7952 26.2529C23.0447 26.5279 22.2433 26.6356 21.4471 26.5682L21.4698 26.591C20.5173 26.5022 19.5606 26.7098 18.7301 27.1857C17.8997 27.6616 17.236 28.3824 16.8295 29.2501C16.423 30.1178 16.2935 31.0898 16.4586 32.034C16.6238 32.978 17.0755 33.8481 17.7523 34.5255C18.4291 35.2029 19.2979 35.6548 20.2403 35.8193C21.1828 35.984 22.1529 35.8532 23.0186 35.4452C23.8842 35.0371 24.6031 34.3716 25.0773 33.5392C25.5516 32.7067 25.758 31.7481 25.6685 30.7938L25.6925 30.8166C25.6253 30.0188 25.7326 29.2159 26.0071 28.4639C26.2816 27.712 26.7166 27.0291 27.2816 26.4629C27.8468 25.8969 28.5283 25.461 29.2788 25.1861C30.0294 24.9111 30.8307 24.8035 31.6271 24.8709L31.6031 24.8481C32.3811 24.9181 33.1643 24.7903 33.8801 24.4764C34.5956 24.1625 35.2207 23.6727 35.6971 23.0524C36.1735 22.4321 36.486 21.7013 36.6053 20.9279C36.7248 20.1543 36.6474 19.3631 36.3804 18.6275C36.1134 17.8919 35.6654 17.2358 35.0778 16.7199C34.4903 16.2039 33.7823 15.845 33.0195 15.6763C32.2566 15.5075 31.4635 15.5344 30.7138 15.7544C29.9641 15.9746 29.282 16.3806 28.7306 16.9352H28.7268Z" fill="#3649F9"/>
<path d="M19.4002 23.6042L19.3761 23.5814C20.0529 23.6497 20.7364 23.5665 21.3773 23.3377C22.018 23.1089 22.6001 22.7405 23.0813 22.2588C23.5623 21.777 23.9307 21.1941 24.1594 20.5523C24.3883 19.9105 24.4719 19.2258 24.4042 18.5477L24.4282 18.5705C24.361 17.7726 24.4684 16.9698 24.7428 16.2178C25.0173 15.4659 25.4523 14.783 26.0173 14.2168C26.5825 13.6507 27.264 13.2149 28.0145 12.94C28.7651 12.665 29.5664 12.5574 30.3628 12.6247L30.3388 12.6019C31.2914 12.6916 32.2483 12.4846 33.0792 12.0093C33.9103 11.5339 34.5745 10.8134 34.9816 9.94587C35.3887 9.07838 35.5188 8.10617 35.3542 7.16186C35.1896 6.21755 34.7382 5.34712 34.0616 4.66928C33.3851 3.99144 32.5162 3.53919 31.5737 3.37425C30.6312 3.20929 29.6609 3.33964 28.795 3.74754C27.929 4.15541 27.2099 4.82099 26.7354 5.65345C26.2609 6.4859 26.0544 7.44473 26.1439 8.39914L26.1211 8.37507C26.1885 9.17294 26.0813 9.97592 25.8069 10.728C25.5326 11.48 25.0975 12.163 24.5325 12.7292C23.9674 13.2953 23.2857 13.7312 22.5351 14.006C21.7844 14.2809 20.9829 14.3883 20.1866 14.3208L20.2093 14.3449C19.5325 14.2766 18.8489 14.3598 18.2082 14.5886C17.5675 14.8172 16.9854 15.1858 16.5042 15.6675C16.023 16.1492 15.6547 16.7322 15.4259 17.374C15.1972 18.0158 15.1136 18.7004 15.1812 19.3786L15.1585 19.3558C15.2255 20.1536 15.1179 20.9564 14.8434 21.7083C14.5688 22.46 14.1339 23.1429 13.5689 23.709C13.0038 24.275 12.3223 24.7108 11.5719 24.9859C10.8215 25.2609 10.0202 25.3687 9.22393 25.3015L9.24669 25.3243C8.29408 25.2347 7.33705 25.4416 6.50615 25.917C5.67526 26.3924 5.01094 27.1129 4.60383 27.9804C4.1967 28.848 4.06658 29.8201 4.23123 30.7644C4.39588 31.7087 4.84728 32.5792 5.52384 33.257C6.20041 33.9349 7.0692 34.3871 8.01174 34.552C8.95428 34.7169 9.92465 34.5866 10.7905 34.1787C11.6564 33.7709 12.3756 33.1053 12.85 32.2729C13.3245 31.4403 13.5311 30.4816 13.4416 29.5271L13.4656 29.5499C13.3984 28.7521 13.5058 27.9493 13.7803 27.1972C14.0546 26.4453 14.4897 25.7625 15.0547 25.1963C15.6198 24.6302 16.3014 24.1943 17.0519 23.9195C17.8025 23.6445 18.6038 23.5368 19.4002 23.6042Z" fill="#3649F9"/>
<path d="M10.9269 21.062C11.4061 20.5792 11.773 19.9962 12.0014 19.3549C12.2298 18.7136 12.314 18.0296 12.2481 17.3519L12.2721 17.3747C12.2049 16.5767 12.3123 15.7736 12.5869 15.0214C12.8615 14.2693 13.2967 13.5863 13.8621 13.0201C14.4275 12.4539 15.1093 12.0182 15.8602 11.7434C16.611 11.4686 17.4127 11.3613 18.2092 11.429L18.1852 11.4062C19.1375 11.4956 20.0942 11.2885 20.9247 10.8132C21.7552 10.3379 22.419 9.61753 22.826 8.7503C23.2329 7.88307 23.3628 6.91122 23.1982 5.96726C23.0336 5.0233 22.5823 4.1532 21.906 3.47561C21.2297 2.79802 20.3612 2.34592 19.419 2.18098C18.4769 2.01602 17.5068 2.14626 16.6413 2.5539C15.7756 2.96154 15.0566 3.62675 14.5822 4.45882C14.1078 5.2909 13.901 6.24933 13.9903 7.20341L13.9676 7.18061C14.0348 7.97842 13.9273 8.78132 13.6529 9.53327C13.3784 10.2852 12.9435 10.9681 12.3784 11.5342C11.8133 12.1004 11.1317 12.5362 10.3812 12.8111C9.63068 13.0861 8.8293 13.1937 8.03299 13.1263L8.05575 13.1491C7.27767 13.0792 6.49456 13.2073 5.779 13.5213C5.06344 13.8353 4.43857 14.3252 3.9623 14.9457C3.48603 15.5659 3.17377 16.2968 3.05445 17.0702C2.93514 17.8438 3.01263 18.635 3.27973 19.3704C3.54684 20.1059 3.99494 20.7619 4.58249 21.2777C5.17004 21.7936 5.87804 22.1525 6.64089 22.3212C7.40372 22.4898 8.19672 22.4628 8.9464 22.2428C9.69607 22.0227 10.3782 21.6166 10.9295 21.062H10.9269Z" fill="#3649F9"/>
<path d="M50.0907 8.42828H53.8456V26.7354H50.0907V8.42828Z" fill="#3E435D"/>
<path d="M55.9722 20.4667C55.967 19.1511 56.3516 17.8634 57.0773 16.767C57.803 15.6706 58.8372 14.8146 60.0489 14.3075C61.2606 13.8003 62.5952 13.6649 63.8837 13.9184C65.1723 14.1718 66.3568 14.8026 67.2872 15.7311C68.2176 16.6595 68.852 17.8437 69.1102 19.1336C69.3683 20.4236 69.2385 21.7613 68.7372 22.9773C68.2359 24.1932 67.3857 25.2329 66.2942 25.9643C65.2026 26.6958 63.9191 27.0863 62.6059 27.0863C61.7343 27.0963 60.8694 26.932 60.0618 26.6032C59.2542 26.2743 58.5201 25.7876 57.9025 25.1713C57.2848 24.555 56.796 23.8214 56.4647 23.0137C56.1332 22.2059 55.9658 21.34 55.9722 20.4667ZM65.4847 20.4667C65.469 19.8996 65.2868 19.3497 64.961 18.8857C64.6351 18.4219 64.18 18.0644 63.6525 17.8584C63.1249 17.6521 62.5485 17.6063 61.9952 17.7266C61.4418 17.847 60.9361 18.1279 60.5412 18.5346C60.1465 18.9412 59.88 19.4555 59.7754 20.0131C59.6708 20.5705 59.7323 21.1466 59.9527 21.6692C60.1731 22.1919 60.5422 22.6377 61.0141 22.9512C61.486 23.2647 62.0398 23.4319 62.6059 23.4319C62.9937 23.4423 63.3794 23.372 63.7389 23.2256C64.0982 23.0792 64.4233 22.8598 64.6938 22.5812C64.9642 22.3026 65.1742 21.9708 65.3102 21.6069C65.4464 21.243 65.5058 20.8548 65.4847 20.4667Z" fill="#3E435D"/>
<path d="M84.205 14.1966V26.1033C84.205 30.3162 80.9254 32.0972 77.5965 32.0972C76.4245 32.1851 75.2509 31.9478 74.2044 31.4117C73.1581 30.8753 72.2793 30.0608 71.6645 29.0572L74.8682 27.2015C75.1266 27.7246 75.5384 28.1562 76.0483 28.4385C76.5583 28.7207 77.1421 28.8403 77.7217 28.781C78.0921 28.8325 78.4694 28.7998 78.8255 28.6854C79.1816 28.571 79.5075 28.3779 79.7791 28.1203C80.0506 27.8627 80.2609 27.5473 80.3944 27.1972C80.5278 26.8472 80.5809 26.4717 80.5499 26.0982V24.9519C80.1102 25.4909 79.5506 25.9191 78.9158 26.2022C78.281 26.4853 77.5889 26.6154 76.8948 26.5821C75.2434 26.5299 73.6771 25.836 72.5274 24.6471C71.3776 23.4584 70.7347 21.868 70.7347 20.2127C70.7347 18.5574 71.3776 16.967 72.5274 15.7782C73.6771 14.5893 75.2434 13.8954 76.8948 13.8432C77.5889 13.8099 78.281 13.94 78.9158 14.2231C79.5506 14.5062 80.1102 14.9345 80.5499 15.4734V14.1941L84.205 14.1966ZM80.5512 20.2146C80.5764 19.6083 80.4199 19.0083 80.102 18.4919C79.784 17.9754 79.319 17.5661 78.7669 17.3167C78.2148 17.0672 77.6008 16.989 77.004 17.0921C76.4071 17.1952 75.8547 17.4749 75.4178 17.8953C74.981 18.3156 74.6797 18.8572 74.5526 19.4505C74.4257 20.0438 74.4788 20.6617 74.7054 21.2245C74.9318 21.7873 75.3212 22.2694 75.8234 22.6086C76.3255 22.9478 76.9176 23.1287 77.5232 23.1279C77.9178 23.1555 78.3136 23.1 78.6855 22.965C79.0573 22.83 79.3967 22.6183 79.682 22.344C79.9672 22.0695 80.192 21.7382 80.3417 21.3714C80.4914 21.0047 80.5628 20.6107 80.5512 20.2146Z" fill="#3E435D"/>
<path d="M86.3315 20.4667C86.3263 19.1511 86.7108 17.8634 87.4366 16.767C88.1623 15.6706 89.1965 14.8146 90.4082 14.3075C91.6199 13.8003 92.9544 13.6649 94.243 13.9184C95.5316 14.1718 96.7161 14.8026 97.6465 15.7311C98.5768 16.6595 99.2113 17.8437 99.4694 19.1336C99.7276 20.4236 99.5977 21.7613 99.0965 22.9773C98.5952 24.1932 97.7449 25.2329 96.6535 25.9643C95.5619 26.6958 94.2784 27.0863 92.9652 27.0863C92.0936 27.0963 91.2286 26.932 90.4211 26.6032C89.6134 26.2743 88.8794 25.7876 88.2618 25.1713C87.6441 24.555 87.1553 23.8214 86.8239 23.0137C86.4924 22.2059 86.325 21.34 86.3315 20.4667ZM95.844 20.4667C95.8283 19.8996 95.6461 19.3497 95.3203 18.8857C94.9944 18.4219 94.5392 18.0644 94.0118 17.8584C93.4842 17.6521 92.9077 17.6063 92.3544 17.7266C91.801 17.847 91.2953 18.1279 90.9005 18.5346C90.5058 18.9412 90.2393 19.4555 90.1346 20.0131C90.0299 20.5705 90.0916 21.1466 90.312 21.6692C90.5323 22.1919 90.9015 22.6377 91.3733 22.9512C91.8453 23.2647 92.3989 23.4319 92.9652 23.4319C93.3529 23.4423 93.7387 23.372 94.098 23.2256C94.4574 23.0792 94.7826 22.8598 95.053 22.5812C95.3235 22.3026 95.5334 21.9708 95.6695 21.6069C95.8056 21.243 95.8651 20.8548 95.844 20.4667Z" fill="#3E435D"/>
</svg>
